<svg width="20" height="20" viewBox="0 0 20 20" fill="none" xmlns="http://www.w3.org/2000/svg">
<path d="M5.83341 4.16634V1.66634C5.83341 1.44533 5.92121 1.23337 6.07749 1.07709C6.23377 0.920805 6.44573 0.833008 6.66675 0.833008H13.3334C13.5544 0.833008 13.7664 0.920805 13.9227 1.07709C14.079 1.23337 14.1667 1.44533 14.1667 1.66634V4.16634H17.5001C17.7211 4.16634 17.9331 4.25414 18.0893 4.41042C18.2456 4.5667 18.3334 4.77866 18.3334 4.99967V16.6663C18.3334 16.8874 18.2456 17.0993 18.0893 17.2556C17.9331 17.4119 17.7211 17.4997 17.5001 17.4997H2.50008C2.27907 17.4997 2.06711 17.4119 1.91083 17.2556C1.75455 17.0993 1.66675 16.8874 1.66675 16.6663V4.99967C1.66675 4.77866 1.75455 4.5667 1.91083 4.41042C2.06711 4.25414 2.27907 4.16634 2.50008 4.16634H5.83341ZM5.00008 10.833V5.83301H3.33341V10.833H5.00008ZM6.66675 5.83301V10.833H9.16675V9.16634H10.8334V10.833H13.3334V5.83301H6.66675ZM15.0001 10.833H16.6667V5.83301H15.0001V10.833ZM7.50008 2.49967V4.16634H12.5001V2.49967H7.50008Z" fill="#111111"/>
</svg>
