<svg width="48" height="48" viewBox="0 0 48 48" fill="none" xmlns="http://www.w3.org/2000/svg">
<g clip-path="url(#clip0_17139_479)">
<path opacity="0.15" d="M23.5294 48.0002C36.5243 48.0002 47.0588 37.4658 47.0588 24.4708C47.0588 11.4759 36.5243 0.941406 23.5294 0.941406C10.5345 0.941406 0 11.4759 0 24.4708C0 37.4658 10.5345 48.0002 23.5294 48.0002Z" fill="black"/>
<path d="M24.4706 47.0588C37.4655 47.0588 48 36.5243 48 23.5294C48 10.5345 37.4655 0 24.4706 0C11.4756 0 0.941162 10.5345 0.941162 23.5294C0.941162 36.5243 11.4756 47.0588 24.4706 47.0588Z" fill="#3B97D3"/>
<path d="M24.4705 4.70605C34.8663 4.70605 43.294 13.1338 43.294 23.5296C43.294 33.9254 34.8663 42.3531 24.4705 42.3531C14.0747 42.3531 5.64697 33.9254 5.64697 23.5296C5.64697 13.1338 14.0747 4.70605 24.4705 4.70605Z" fill="white"/>
<path fill-rule="evenodd" clip-rule="evenodd" d="M24.4707 9.41211C32.2679 9.41211 38.5883 15.7326 38.5883 23.5298C38.5883 31.3265 32.2679 37.6474 24.4707 37.6474C16.6735 37.6474 10.353 31.3265 10.353 23.5298C10.353 15.7326 16.6735 9.41211 24.4707 9.41211Z" fill="#6BC8F2"/>
<path d="M24.4706 14.1172C29.6687 14.1172 33.8824 18.3313 33.8824 23.529C33.8824 28.7266 29.6687 32.9407 24.4706 32.9407C19.2725 32.9407 15.0588 28.7266 15.0588 23.529C15.0588 18.3313 19.2725 14.1172 24.4706 14.1172Z" fill="white"/>
<path fill-rule="evenodd" clip-rule="evenodd" d="M24.4705 18.8232C27.0696 18.8232 29.1764 20.9301 29.1764 23.5291C29.1764 26.1277 27.0696 28.235 24.4705 28.235C21.8715 28.235 19.7646 26.1277 19.7646 23.5291C19.7646 20.9301 21.8715 18.8232 24.4705 18.8232Z" fill="#E64C3C"/>
<path fill-rule="evenodd" clip-rule="evenodd" d="M41.8823 34.8232H35.7646L41.8823 40.9409H47.9999L41.8823 34.8232Z" fill="#F0C419"/>
<path fill-rule="evenodd" clip-rule="evenodd" d="M41.8823 47.0585V40.9409L35.7646 34.8232V40.9409L41.8823 47.0585Z" fill="#F29C1F"/>
<path fill-rule="evenodd" clip-rule="evenodd" d="M41.8823 34.8232H35.7646L41.8823 40.9409H47.9999L41.8823 34.8232Z" fill="#F0C419"/>
<path opacity="0.15" d="M23.736 22.7946L7.11572 39.4148C7.4346 39.761 7.76368 40.0976 8.10255 40.4242L24.7341 23.7927C24.8015 23.7276 24.8553 23.6497 24.8923 23.5636C24.9293 23.4775 24.9487 23.3848 24.9495 23.2911C24.9504 23.1974 24.9325 23.1044 24.897 23.0177C24.8615 22.9309 24.8091 22.8521 24.7428 22.7858C24.6765 22.7196 24.5977 22.6672 24.511 22.6317C24.4242 22.5962 24.3313 22.5783 24.2376 22.5791C24.1438 22.5799 24.0512 22.5994 23.9651 22.6364C23.879 22.6734 23.8011 22.7272 23.736 22.7946Z" fill="black"/>
<path d="M42.5238 42.3045C42.343 42.3045 42.1619 42.2358 42.024 42.0979L23.9713 24.0292C23.8446 23.8956 23.7751 23.7177 23.7777 23.5336C23.7802 23.3495 23.8545 23.1737 23.9847 23.0436C24.115 22.9134 24.2909 22.8393 24.475 22.837C24.6591 22.8346 24.8368 22.9043 24.9703 23.0311L43.0235 41.0993C43.1221 41.1981 43.1892 41.324 43.2163 41.4609C43.2434 41.5978 43.2294 41.7397 43.1759 41.8687C43.1224 41.9976 43.0319 42.1079 42.9159 42.1854C42.7998 42.263 42.6633 42.3044 42.5238 42.3045Z" fill="#E57E25"/>
</g>
<defs>
<clipPath id="clip0_17139_479">
<rect width="48" height="48" fill="white"/>
</clipPath>
</defs>
</svg>
