<svg width="24" height="24" viewBox="0 0 24 24" fill="none" xmlns="http://www.w3.org/2000/svg">
<path d="M12 2C6.486 2 2 6.486 2 12C2 17.514 6.486 22 12 22C17.514 22 22 17.514 22 12C22 6.486 17.514 2 12 2ZM12 20C7.589 20 4 16.411 4 12C4 7.589 7.589 4 12 4C16.411 4 20 7.589 20 12C20 16.411 16.411 20 12 20Z" fill="#111111" fill-opacity="0.4"/>
<path d="M14.8289 14.8278C14.4634 15.1922 14.0317 15.4834 13.5569 15.6858C12.7022 16.0467 11.7487 16.0993 10.8595 15.8349C9.97022 15.5704 9.20049 15.0051 8.68193 14.2358L7.02393 15.3548C7.45636 15.993 8.00652 16.5428 8.64493 16.9748C9.29458 17.4142 10.0245 17.721 10.7929 17.8778C11.5897 18.0404 12.4111 18.0404 13.2079 17.8778C13.9763 17.7208 14.7062 17.414 15.3559 16.9748C15.6689 16.7628 15.9679 16.5168 16.2419 16.2438C16.5139 15.9728 16.7619 15.6728 16.9759 15.3548L15.3179 14.2358C15.1742 14.4483 15.0105 14.6466 14.8289 14.8278Z" fill="#111111" fill-opacity="0.4"/>
<path d="M8.5 12C9.32843 12 10 11.3284 10 10.5C10 9.67157 9.32843 9 8.5 9C7.67157 9 7 9.67157 7 10.5C7 11.3284 7.67157 12 8.5 12Z" fill="#111111" fill-opacity="0.4"/>
<path d="M15.493 11.986C16.3176 11.986 16.986 11.3176 16.986 10.493C16.986 9.66844 16.3176 9 15.493 9C14.6684 9 14 9.66844 14 10.493C14 11.3176 14.6684 11.986 15.493 11.986Z" fill="#111111" fill-opacity="0.4"/>
</svg>
