<svg width="25" height="24" viewBox="0 0 25 24" fill="none" xmlns="http://www.w3.org/2000/svg">
<path d="M20.4167 11H4.41675V8H20.4167M20.4167 15H13.4167V13H20.4167M20.4167 19H13.4167V17H20.4167M11.4167 19H4.41675V13H11.4167M20.7467 4.67L19.0867 3L17.4167 4.67L15.7467 3L14.0867 4.67L12.4167 3L10.7467 4.67L9.08675 3L7.41675 4.67L5.74675 3L4.08675 4.67L2.41675 3V19C2.41675 19.5304 2.62746 20.0391 3.00253 20.4142C3.37761 20.7893 3.88632 21 4.41675 21H20.4167C20.9472 21 21.4559 20.7893 21.831 20.4142C22.206 20.0391 22.4167 19.5304 22.4167 19V3L20.7467 4.67Z" fill="#111111"/>
</svg>
