<svg width="25" height="24" viewBox="0 0 25 24" fill="none" xmlns="http://www.w3.org/2000/svg">
<path d="M18.8333 15H6.83325L2.83325 19V3C2.83325 2.73478 2.93861 2.48043 3.12615 2.29289C3.31368 2.10536 3.56804 2 3.83325 2H18.8333C19.0985 2 19.3528 2.10536 19.5404 2.29289C19.7279 2.48043 19.8333 2.73478 19.8333 3V14C19.8333 14.2652 19.7279 14.5196 19.5404 14.7071C19.3528 14.8946 19.0985 15 18.8333 15ZM23.8333 9V23L19.8333 19H8.83325C8.56804 19 8.31368 18.8946 8.12615 18.7071C7.93861 18.5196 7.83325 18.2652 7.83325 18V17H21.8333V8H22.8333C23.0985 8 23.3528 8.10536 23.5404 8.29289C23.7279 8.48043 23.8333 8.73478 23.8333 9ZM9.02325 4C8.15325 4 7.45325 4.2 6.91325 4.59C6.39325 5 6.13325 5.57 6.14325 6.36L6.15325 6.39H8.08325C8.09325 6.09 8.18325 5.86 8.36325 5.7C8.54325 5.55 8.76325 5.47 9.02325 5.47C9.33325 5.47 9.59325 5.57 9.77325 5.75C9.95325 5.94 10.0333 6.2 10.0333 6.5C10.0333 6.82 9.96325 7.09 9.80325 7.32C9.66325 7.55 9.45325 7.75 9.19325 7.91C8.68325 8.25 8.33325 8.55 8.14325 8.82C7.94325 9.08 7.83325 9.5 7.83325 10H9.83325C9.83325 9.69 9.87325 9.44 9.96325 9.26C10.0533 9.08 10.2233 8.9 10.4733 8.74C10.9233 8.5 11.2933 8.21 11.5833 7.81C11.8733 7.41 12.0233 7 12.0233 6.5C12.0233 5.74 11.7533 5.13 11.2133 4.68C10.6833 4.23 9.95325 4 9.02325 4ZM7.83325 11V13H9.83325V11H7.83325ZM13.8333 13H15.8333V11H13.8333V13ZM13.8333 4V10H15.8333V4H13.8333Z" fill="#111111"/>
</svg>
